<svg width="24" height="25" viewBox="0 0 24 25" fill="none" xmlns="http://www.w3.org/2000/svg">
<path d="M19.1477 5.27246H5.33514L4.15497 3.15706C4.0225 2.91961 3.7719 2.77246 3.5 2.77246H2C1.58579 2.77246 1.25 3.10825 1.25 3.52246C1.25 3.93667 1.58579 4.27246 2 4.27246H3.0596L4.22429 6.36011L6.91037 12.3034L6.91312 12.3094L7.14971 12.8329L4.45287 15.7095C4.25895 15.9164 4.19825 16.2149 4.29599 16.481C4.39372 16.7472 4.63317 16.9355 4.91486 16.9677L7.37299 17.2486C10.4477 17.6 13.5524 17.6 16.627 17.2486L19.0852 16.9677C19.4967 16.9206 19.7922 16.5489 19.7452 16.1373C19.6981 15.7258 19.3264 15.4303 18.9149 15.4774L16.4567 15.7583C13.4952 16.0967 10.5048 16.0967 7.54331 15.7583L6.56779 15.6468L8.54717 13.5355C8.56632 13.515 8.5841 13.4938 8.60052 13.4719L9.35334 13.5699C10.4083 13.7072 11.4746 13.7341 12.5351 13.6502C15.0086 13.4546 17.301 12.2776 18.9015 10.3816L19.4795 9.69671C19.499 9.67371 19.517 9.64957 19.5335 9.6244L20.6109 7.98255C21.3745 6.81879 20.5397 5.27246 19.1477 5.27246Z" fill="#333333"/>
<path d="M6.5 18.5225C5.67157 18.5225 5 19.1941 5 20.0225C5 20.8509 5.67157 21.5225 6.5 21.5225C7.32843 21.5225 8 20.8509 8 20.0225C8 19.1941 7.32843 18.5225 6.5 18.5225Z" fill="#333333"/>
<path d="M16 20.0225C16 19.1941 16.6716 18.5225 17.5 18.5225C18.3284 18.5225 19 19.1941 19 20.0225C19 20.8509 18.3284 21.5225 17.5 21.5225C16.6716 21.5225 16 20.8509 16 20.0225Z" fill="#333333"/>
</svg>
